# xmcd
#
# Track frame offsets:
#	150
#	26021
#	43662
#	60776
#	76490
#	90449
#	107435
#	118974
#	132135
#
# Disc length: 1920 seconds
#
# Revision: 0
# Processed by: cddbd v1.5.1PL2 Copyright (c) Steve Scherf et al.
# Submitted via: dBpowerAMP V4.0
#
DISCID=67077e09
DTITLE=Various Artist - From the heart
DYEAR=2000
DGENRE=Country
TTITLE0=Hansie (we Love you)
TTITLE1=Help me make it through the night
TTITLE2=Tommy Dell - Two Pina Coladas
TTITLE3=Boot Scootin' Boogie
TTITLE4=It's now or never
TTITLE5=Jesse
TTITLE6=One Night
TTITLE7=Tommy Dell - Can't help falling in love with you
TTITLE8=To Daddy
EXTD=
EXTT0=
EXTT1=
EXTT2=
EXTT3=
EXTT4=
EXTT5=
EXTT6=
EXTT7=
EXTT8=
PLAYORDER=
